<svg xmlns="http://www.w3.org/2000/svg" xmlns:xlink="http://www.w3.org/1999/xlink" viewBox="0 0 468.5 111.44"><defs><style>.cls-1{fill:url(#Unbenannter_Verlauf_9);}.cls-2{fill:url(#Unbenannter_Verlauf_9-2);}.cls-3{fill:url(#Unbenannter_Verlauf_9-3);}.cls-4{fill:url(#Unbenannter_Verlauf_9-4);}.cls-5{fill:url(#Unbenannter_Verlauf_9-5);}.cls-6{fill:none;}.cls-7{fill:url(#Unbenannter_Verlauf_9-7);}.cls-8{fill:url(#Unbenannter_Verlauf_9-8);}</style><linearGradient id="Unbenannter_Verlauf_9" x1="-9.27" y1="70.73" x2="477.77" y2="70.73" gradientUnits="userSpaceOnUse"><stop offset="0" stop-color="#ea53ad"/><stop offset="1" stop-color="#eb4e55"/></linearGradient><linearGradient id="Unbenannter_Verlauf_9-2" x1="-9.27" y1="56.37" x2="477.77" y2="56.37" xlink:href="#Unbenannter_Verlauf_9"/><linearGradient id="Unbenannter_Verlauf_9-3" x1="-9.27" y1="70.27" x2="477.77" y2="70.27" xlink:href="#Unbenannter_Verlauf_9"/><linearGradient id="Unbenannter_Verlauf_9-4" x1="-9.27" y1="8.68" x2="477.77" y2="8.68" xlink:href="#Unbenannter_Verlauf_9"/><linearGradient id="Unbenannter_Verlauf_9-5" x1="-9.27" y1="70.69" x2="477.77" y2="70.69" xlink:href="#Unbenannter_Verlauf_9"/><linearGradient id="Unbenannter_Verlauf_9-7" x1="-9.27" y1="70.91" x2="477.77" y2="70.91" xlink:href="#Unbenannter_Verlauf_9"/><linearGradient id="Unbenannter_Verlauf_9-8" x1="-9.27" y1="55.11" x2="477.77" y2="55.11" xlink:href="#Unbenannter_Verlauf_9"/></defs><title>strivals logo</title><g id="Ebene_2" data-name="Ebene 2"><g id="Ebene_1-2" data-name="Ebene 1"><path class="cls-1" d="M55.15,64.86a31.16,31.16,0,0,0-10.55-2.4L38.24,62l-6.44-.46q-5.64-.46-7.46-2.29a5.74,5.74,0,0,1-1.9-4.11A7.7,7.7,0,0,1,25,49.21q2.67-2.44,9.75-2.44a28.83,28.83,0,0,1,10.89,1.94,50,50,0,0,1,9.29,5,.93.93,0,0,0,1.22-.15l9.6-11.27a1.11,1.11,0,0,0,.23-.69.73.73,0,0,0-.3-.61,55.39,55.39,0,0,0-6.21-4.42,38.85,38.85,0,0,0-7-3.35,47.83,47.83,0,0,0-8.15-2.13,56,56,0,0,0-9.56-.76q-12.57,0-21,6.17Q5.14,42.81,5.14,55q0,10.44,6.55,16.22a24.17,24.17,0,0,0,7.46,4.49,34.15,34.15,0,0,0,9,2.06l13.71,1.29q8.68.69,8.68,6.7a7.13,7.13,0,0,1-1,3.81,8.66,8.66,0,0,1-2.86,2.82,21.45,21.45,0,0,1-10.51,2.36,32.79,32.79,0,0,1-23.77-9.67q-.53-.53-1.14.08L.34,95.75a.86.86,0,0,0,0,1.37q15.08,14,34.58,14a47.26,47.26,0,0,0,12.68-1.6,37.74,37.74,0,0,0,10.55-4.72q9.67-6.47,9.67-18.36a25.41,25.41,0,0,0-5.41-16.22A18.63,18.63,0,0,0,55.15,64.86Z"/><path class="cls-2" d="M111.93,31.15H101.58V3.35a.84.84,0,0,0-.57-.84.89.89,0,0,0-1,.23L84.21,19.58V31.15H77.35a.81.81,0,0,0-.91.91V44a.81.81,0,0,0,.91.91h6.86v64.52a.81.81,0,0,0,.91.91h15.54a.81.81,0,0,0,.91-.91V44.87h10.36a.81.81,0,0,0,.91-.91V32.07A.81.81,0,0,0,111.93,31.15Z"/><path class="cls-3" d="M163.66,30.32q-12.19,0-19.5,8V32.07q0-.91-.84-.91H127.7c-.56,0-.84.3-.84.91v77.24c0,.61.28.91.84.91h15.62q.84,0,.84-.91V62.92q0-8,4.34-11.65a15,15,0,0,1,9.83-3.66,16.44,16.44,0,0,1,9.75,3.66.77.77,0,0,0,1.22-.15l11.2-13.41a.94.94,0,0,0,.19-.69.84.84,0,0,0-.34-.61Q172.41,30.32,163.66,30.32Z"/><path class="cls-4" d="M204.18,0H188.64a.81.81,0,0,0-.91.91V16.45a.81.81,0,0,0,.91.91h15.54q.84,0,.84-.91V.91Q205,0,204.18,0Z"/><path class="cls-5" d="M204.18,110.22q.84,0,.84-.91V32.07q0-.91-.84-.91H188.64a.81.81,0,0,0-.91.91v77.24a.81.81,0,0,0,.91.91Z"/><path class="cls-5" d="M284.24,31.15H267.78a.77.77,0,0,0-.84.61q-4.34,13.1-8.72,26.05T249.5,83.87l-17.44-52.1a.77.77,0,0,0-.84-.61H214.77a.75.75,0,0,0-.69.38,1,1,0,0,0-.08.84l28.26,77.24a.85.85,0,0,0,.34.42.88.88,0,0,0,.5.19h12.8a.88.88,0,0,0,.5-.19.87.87,0,0,0,.34-.42l28.34-77.24a1,1,0,0,0-.08-.84A.82.82,0,0,0,284.24,31.15Z"/><path class="cls-6" d="M305.64,86.15a7.86,7.86,0,0,0,3.12,6.09Q312,95.06,319,95.06q9.37.08,12.95-2.21h-.08q3.2-2.13,3.2-10.36V77.7H317.83Q305.56,78.08,305.64,86.15Z"/><path class="cls-7" d="M343,36a31.8,31.8,0,0,0-10.21-4.34,53.3,53.3,0,0,0-12.95-1.29Q302.52,30,293.68,42a.76.76,0,0,0-.15.65,1,1,0,0,0,.38.57l11.88,9.37q.84.69,1.37-.23a10.06,10.06,0,0,1,2.06-2.63A12.16,12.16,0,0,1,312,47.84h-.08a17.51,17.51,0,0,1,3.88-.84,45.37,45.37,0,0,1,4.8-.23q14.63-.38,14.47,9.06v7.24H315q-12.34.15-18.89,7a23.75,23.75,0,0,0-6.4,16.83,22.49,22.49,0,0,0,7.46,17.44v-.08q6.86,6.86,20,7.16a41.65,41.65,0,0,0,6.89-.53,25.14,25.14,0,0,0,5.52-1.52,12.84,12.84,0,0,0,3-1.64,12.35,12.35,0,0,0,2.48-2.4v4.27a.81.81,0,0,0,.91.91h15a.81.81,0,0,0,.91-.91V56.67Q351.8,42.28,343,36ZM335,82.49q0,8.23-3.2,10.36h.08q-3.58,2.29-12.95,2.21-7,0-10.21-2.82a7.86,7.86,0,0,1-3.12-6.09q-.08-8.07,12.19-8.46H335Z"/><path class="cls-8" d="M396.44,93.84h-5.26q-5,0-5-4.49V.91q0-.91-.84-.91H369.78c-.56,0-.84.3-.84.91V90.64q0,10.89,6,15.31a24.62,24.62,0,0,0,14.63,4.27h6.86a.81.81,0,0,0,.91-.91V94.76A.81.81,0,0,0,396.44,93.84Z"/><path class="cls-1" d="M455.81,64.86a31.16,31.16,0,0,0-10.55-2.4L438.9,62l-6.44-.46q-5.64-.46-7.46-2.29a5.75,5.75,0,0,1-1.9-4.11,7.7,7.7,0,0,1,2.59-5.94q2.67-2.44,9.75-2.44a28.83,28.83,0,0,1,10.89,1.94,50,50,0,0,1,9.29,5,.93.93,0,0,0,1.22-.15l9.6-11.27a1.11,1.11,0,0,0,.23-.69.73.73,0,0,0-.3-.61,55.34,55.34,0,0,0-6.21-4.42,38.85,38.85,0,0,0-7-3.35A47.82,47.82,0,0,0,445,31.08a56,56,0,0,0-9.56-.76q-12.57,0-21,6.17-8.61,6.32-8.61,18.51,0,10.44,6.55,16.22a24.18,24.18,0,0,0,7.46,4.49,34.15,34.15,0,0,0,9,2.06l13.71,1.29q8.68.69,8.68,6.7a7.13,7.13,0,0,1-1,3.81,8.66,8.66,0,0,1-2.86,2.82,21.45,21.45,0,0,1-10.51,2.36A32.79,32.79,0,0,1,413,85.08q-.53-.53-1.14.08L401,95.75a.86.86,0,0,0,0,1.37q15.08,14,34.58,14a47.26,47.26,0,0,0,12.68-1.6,37.73,37.73,0,0,0,10.55-4.72q9.67-6.47,9.67-18.36a25.41,25.41,0,0,0-5.41-16.22A18.63,18.63,0,0,0,455.81,64.86Z"/></g></g></svg>